<svg width="109" height="109" viewBox="0 0 109 109" fill="none" xmlns="http://www.w3.org/2000/svg">
<circle cx="48" cy="59.416" r="38.5" fill="white" stroke="#232323" stroke-width="9"/>
<circle cx="48" cy="59.416" r="23" fill="white" stroke="#232323" stroke-width="12"/>
<circle cx="48" cy="59.416" r="12" fill="#232323"/>
<mask id="path-4-outside-1_30_556" maskUnits="userSpaceOnUse" x="44.0618" y="15.2354" width="49.4975" height="49.4975" fill="black">
<rect fill="white" x="44.0618" y="15.2354" width="49.4975" height="49.4975"/>
<path d="M88.6096 17.3567L93.5593 22.3064L51.5693 64.2965L46.6195 59.3467L88.6096 17.3567Z"/>
</mask>
<path d="M88.6096 17.3567L93.5593 22.3064L51.5693 64.2965L46.6195 59.3467L88.6096 17.3567Z" fill="#232323"/>
<path d="M48.7408 61.468L90.7309 19.478L86.4882 15.2354L44.4982 57.2254L48.7408 61.468Z" fill="white" mask="url(#path-4-outside-1_30_556)"/>
<path d="M95.3848 3.41602L97.8596 12.962L107.406 15.4368L92.5563 30.2861L83.0104 27.8112L80.5355 18.2653L95.3848 3.41602Z" fill="#232323"/>
<path opacity="0.2" d="M95.3848 3.41602L97.8596 12.962L107.406 15.4368L92.5563 30.2861L83.0104 27.8112L80.5355 18.2653L95.3848 3.41602Z" fill="black"/>
</svg>
