<svg width="58" height="64" viewBox="0 0 58 64" fill="none" xmlns="http://www.w3.org/2000/svg">
<g id="Group 5">
<rect id="Rectangle 25" x="19" width="20" height="12.381" rx="2" fill="white"/>
<rect id="Rectangle 26" y="25" width="20" height="12.381" rx="2" fill="white"/>
<rect id="Rectangle 28" y="51" width="20" height="12.381" rx="2" fill="white"/>
<rect id="Rectangle 29" x="26" y="51" width="20" height="12.381" rx="2" fill="white"/>
<rect id="Rectangle 27" x="38" y="25" width="20" height="12.381" rx="2" fill="white"/>
<path id="Vector 8" d="M29 12V18.5C29 19.0523 28.5523 19.5 28 19.5H11C10.4477 19.5 10 19.9477 10 20.5V56C10 56.5523 10.4477 57 11 57H27" stroke="white" stroke-width="2" stroke-linecap="round"/>
<path id="Vector 9" d="M29 12V18.5C29 19.0523 29.4477 19.5 30 19.5H47C47.5523 19.5 48 19.9477 48 20.5V28" stroke="white" stroke-width="2" stroke-linecap="round"/>
<path id="Vector 10" d="M17.5 19.5H46" stroke="white" stroke-width="2" stroke-linecap="round"/>
</g>
</svg>
