<svg width="109" height="110" viewBox="0 0 109 110" fill="none" xmlns="http://www.w3.org/2000/svg">
<rect y="22" width="101" height="66.5934" rx="6" fill="#232323"/>
<path d="M6 33H95V82H6V33Z" fill="white"/>
<path d="M51.0833 93.4167C68.3883 93.4167 82.4167 79.3883 82.4167 62.0833C82.4167 44.7784 68.3883 30.75 51.0833 30.75C33.7784 30.75 19.75 44.7784 19.75 62.0833C19.75 79.3883 33.7784 93.4167 51.0833 93.4167Z" fill="white"/>
<mask id="path-4-outside-1_76_852" maskUnits="userSpaceOnUse" x="11.75" y="22.75" width="87" height="87" fill="black">
<rect fill="white" x="11.75" y="22.75" width="87" height="87"/>
<path fill-rule="evenodd" clip-rule="evenodd" d="M22.75 62.0833C22.75 46.4353 35.4353 33.75 51.0833 33.75C66.7314 33.75 79.4167 46.4353 79.4167 62.0833C79.4167 69.7435 76.3768 76.6936 71.4377 81.7932C71.3166 81.8823 71.2007 81.9816 71.0911 82.0912C70.9815 82.2007 70.8822 82.3167 70.7931 82.4378C65.6935 87.3769 58.7434 90.4167 51.0833 90.4167C35.4353 90.4167 22.75 77.7314 22.75 62.0833ZM73.147 88.3897C67.1801 93.3995 59.4841 96.4167 51.0833 96.4167C32.1216 96.4167 16.75 81.0451 16.75 62.0833C16.75 43.1216 32.1216 27.75 51.0833 27.75C70.0451 27.75 85.4167 43.1216 85.4167 62.0833C85.4167 70.4841 82.3995 78.1802 77.3897 84.1471L92.3712 99.1287C93.5428 100.3 93.5428 102.2 92.3712 103.371C91.1996 104.543 89.3002 104.543 88.1286 103.371L73.147 88.3897Z"/>
</mask>
<path fill-rule="evenodd" clip-rule="evenodd" d="M22.75 62.0833C22.75 46.4353 35.4353 33.75 51.0833 33.75C66.7314 33.75 79.4167 46.4353 79.4167 62.0833C79.4167 69.7435 76.3768 76.6936 71.4377 81.7932C71.3166 81.8823 71.2007 81.9816 71.0911 82.0912C70.9815 82.2007 70.8822 82.3167 70.7931 82.4378C65.6935 87.3769 58.7434 90.4167 51.0833 90.4167C35.4353 90.4167 22.75 77.7314 22.75 62.0833ZM73.147 88.3897C67.1801 93.3995 59.4841 96.4167 51.0833 96.4167C32.1216 96.4167 16.75 81.0451 16.75 62.0833C16.75 43.1216 32.1216 27.75 51.0833 27.75C70.0451 27.75 85.4167 43.1216 85.4167 62.0833C85.4167 70.4841 82.3995 78.1802 77.3897 84.1471L92.3712 99.1287C93.5428 100.3 93.5428 102.2 92.3712 103.371C91.1996 104.543 89.3002 104.543 88.1286 103.371L73.147 88.3897Z" fill="#232323"/>
<path d="M71.4377 81.7932L74.4002 85.8211C74.6248 85.6559 74.8353 85.4721 75.0293 85.2718L71.4377 81.7932ZM70.7931 82.4378L74.2717 86.0294C74.472 85.8354 74.6558 85.6249 74.821 85.4002L70.7931 82.4378ZM73.147 88.3897L76.6825 84.8542C74.849 83.0206 71.9179 82.8931 69.932 84.5605L73.147 88.3897ZM77.3897 84.1471L73.5604 80.932C71.893 82.918 72.0205 85.8491 73.8541 87.6826L77.3897 84.1471ZM92.3712 99.1287L88.8357 102.664L88.8357 102.664L92.3712 99.1287ZM88.1286 103.371L91.6641 99.8358L91.6641 99.8358L88.1286 103.371ZM51.0833 28.75C32.6738 28.75 17.75 43.6738 17.75 62.0833H27.75C27.75 49.1967 38.1967 38.75 51.0833 38.75V28.75ZM84.4167 62.0833C84.4167 43.6738 69.4928 28.75 51.0833 28.75V38.75C63.97 38.75 74.4167 49.1967 74.4167 62.0833H84.4167ZM75.0293 85.2718C80.8353 79.2771 84.4167 71.0933 84.4167 62.0833H74.4167C74.4167 68.3936 71.9184 74.1101 67.8461 78.3146L75.0293 85.2718ZM74.6266 85.6267C74.5572 85.6961 74.4815 85.7613 74.4002 85.8211L68.4752 77.7653C68.1517 78.0033 67.8441 78.2671 67.5555 78.5556L74.6266 85.6267ZM74.821 85.4002C74.7612 85.4816 74.696 85.5573 74.6266 85.6267L67.5555 78.5556C67.267 78.8442 67.0032 79.1518 66.7652 79.4753L74.821 85.4002ZM51.0833 95.4167C60.0933 95.4167 68.277 91.8354 74.2717 86.0294L67.3146 78.8462C63.11 82.9184 57.3936 85.4167 51.0833 85.4167V95.4167ZM17.75 62.0833C17.75 80.4928 32.6738 95.4167 51.0833 95.4167V85.4167C38.1967 85.4167 27.75 74.97 27.75 62.0833H17.75ZM69.932 84.5605C64.8321 88.8423 58.2649 91.4167 51.0833 91.4167V101.417C60.7033 101.417 69.5282 97.9567 76.3621 92.219L69.932 84.5605ZM51.0833 91.4167C34.883 91.4167 21.75 78.2837 21.75 62.0833H11.75C11.75 83.8065 29.3601 101.417 51.0833 101.417V91.4167ZM21.75 62.0833C21.75 45.883 34.883 32.75 51.0833 32.75V22.75C29.3601 22.75 11.75 40.3601 11.75 62.0833H21.75ZM51.0833 32.75C67.2837 32.75 80.4167 45.883 80.4167 62.0833H90.4167C90.4167 40.3601 72.8065 22.75 51.0833 22.75V32.75ZM80.4167 62.0833C80.4167 69.2649 77.8423 75.8322 73.5604 80.932L81.2189 87.3622C86.9567 80.5283 90.4167 71.7034 90.4167 62.0833H80.4167ZM73.8541 87.6826L88.8357 102.664L95.9068 95.5931L80.9252 80.6116L73.8541 87.6826ZM88.8357 102.664C88.0546 101.883 88.0546 100.617 88.8357 99.8358L95.9068 106.907C99.031 103.783 99.031 98.7173 95.9067 95.5931L88.8357 102.664ZM88.8357 99.8358C89.6167 99.0547 90.8831 99.0547 91.6641 99.8358L84.593 106.907C87.7172 110.031 92.7826 110.031 95.9068 106.907L88.8357 99.8358ZM91.6641 99.8358L76.6825 84.8542L69.6115 91.9253L84.593 106.907L91.6641 99.8358Z" fill="white" mask="url(#path-4-outside-1_76_852)"/>
<path d="M37.4247 70.286C36.5593 70.286 35.7307 70.1503 34.9387 69.879C34.1467 69.6003 33.4537 69.2043 32.8597 68.691C32.2657 68.1703 31.8367 67.5507 31.5727 66.832L34.6747 65.688C34.748 65.9007 34.9093 66.106 35.1587 66.304C35.4153 66.502 35.738 66.667 36.1267 66.799C36.5153 66.9237 36.948 66.986 37.4247 66.986C37.8647 66.986 38.279 66.9237 38.6677 66.799C39.0563 66.667 39.3717 66.4873 39.6137 66.26C39.8557 66.0327 39.9767 65.7687 39.9767 65.468C39.9767 65.16 39.8483 64.907 39.5917 64.709C39.3423 64.5037 39.0197 64.3423 38.6237 64.225C38.235 64.1003 37.8353 64.0087 37.4247 63.95C36.31 63.7887 35.309 63.5247 34.4217 63.158C33.5417 62.784 32.845 62.2707 32.3317 61.618C31.8257 60.9653 31.5727 60.1367 31.5727 59.132C31.5727 58.1713 31.844 57.3317 32.3867 56.613C32.9293 55.887 33.6443 55.3223 34.5317 54.919C35.4263 54.5157 36.3907 54.314 37.4247 54.314C38.29 54.314 39.1187 54.4533 39.9107 54.732C40.71 55.0033 41.4067 55.3993 42.0007 55.92C42.5947 56.4407 43.02 57.064 43.2767 57.79L40.1747 58.912C40.1013 58.6993 39.9363 58.4977 39.6797 58.307C39.4303 58.109 39.1113 57.9477 38.7227 57.823C38.334 57.6983 37.9013 57.636 37.4247 57.636C36.9993 57.6287 36.5923 57.691 36.2037 57.823C35.815 57.955 35.496 58.1347 35.2467 58.362C34.9973 58.5893 34.8727 58.846 34.8727 59.132C34.8727 59.528 34.99 59.825 35.2247 60.023C35.4593 60.2137 35.7673 60.3493 36.1487 60.43C36.5373 60.5107 36.9627 60.584 37.4247 60.65C38.4807 60.804 39.4523 61.079 40.3397 61.475C41.227 61.871 41.9383 62.399 42.4737 63.059C43.009 63.719 43.2767 64.522 43.2767 65.468C43.2767 66.4287 43.0053 67.272 42.4627 67.998C41.9273 68.7167 41.216 69.2777 40.3287 69.681C39.4413 70.0843 38.4733 70.286 37.4247 70.286ZM45.693 70V54.6H55.505V57.9H48.993V60.1H54.009V63.4H48.993V66.7H55.505V70H45.693ZM65.0677 70.286C64.0263 70.286 63.0473 70.0807 62.1307 69.67C61.214 69.252 60.4073 68.6763 59.7107 67.943C59.014 67.2097 58.4677 66.3627 58.0717 65.402C57.6757 64.434 57.4777 63.4 57.4777 62.3C57.4777 61.2 57.6757 60.1697 58.0717 59.209C58.4677 58.241 59.014 57.3903 59.7107 56.657C60.4073 55.9237 61.214 55.3517 62.1307 54.941C63.0473 54.523 64.0263 54.314 65.0677 54.314C66.1163 54.314 67.099 54.523 68.0157 54.941C68.9323 55.3517 69.739 55.9237 70.4357 56.657C71.1323 57.3903 71.675 58.241 72.0637 59.209C72.4597 60.1697 72.6577 61.2 72.6577 62.3C72.6577 63.4 72.4597 64.434 72.0637 65.402C71.675 66.3627 71.1323 67.2097 70.4357 67.943C69.739 68.6763 68.9323 69.252 68.0157 69.67C67.099 70.0807 66.1163 70.286 65.0677 70.286ZM65.0677 66.986C65.6543 66.986 66.2043 66.865 66.7177 66.623C67.2383 66.3737 67.6967 66.0363 68.0927 65.611C68.4887 65.1783 68.7967 64.6797 69.0167 64.115C69.244 63.5503 69.3577 62.9453 69.3577 62.3C69.3577 61.6547 69.244 61.0497 69.0167 60.485C68.7967 59.9203 68.4887 59.4253 68.0927 59C67.6967 58.5673 67.2383 58.23 66.7177 57.988C66.2043 57.7387 65.6543 57.614 65.0677 57.614C64.481 57.614 63.9273 57.7387 63.4067 57.988C62.8933 58.23 62.4387 58.5673 62.0427 59C61.6467 59.4253 61.335 59.9203 61.1077 60.485C60.8877 61.0497 60.7777 61.6547 60.7777 62.3C60.7777 62.9453 60.8877 63.5503 61.1077 64.115C61.335 64.6797 61.6467 65.1783 62.0427 65.611C62.4387 66.0363 62.8933 66.3737 63.4067 66.623C63.9273 66.865 64.481 66.986 65.0677 66.986Z" fill="#232323"/>
<circle cx="8" cy="28" r="2" fill="white"/>
<circle cx="14" cy="28" r="2" fill="white"/>
<circle cx="20" cy="28" r="2" fill="white"/>
</svg>
