<svg width="106" height="101" viewBox="0 0 106 101" fill="none" xmlns="http://www.w3.org/2000/svg">
<g id="interview">
<g id="Group 2">
<path id="Union" fill-rule="evenodd" clip-rule="evenodd" d="M35.5 0C32.1863 0 29.5 2.68629 29.5 6V50.5435C29.5 53.8572 32.1863 56.5435 35.5 56.5435H84.9348L96.0217 67.6304V56.5435H100C103.314 56.5435 106 53.8572 106 50.5435V6C106 2.68629 103.314 0 100 0H35.5Z" fill="#232323"/>
<rect id="Rectangle 5" x="40.587" y="9.97827" width="53.2174" height="4.43478" rx="2.21739" fill="white"/>
<rect id="Rectangle 6" x="40.587" y="18.8479" width="53.2174" height="4.43478" rx="2.21739" fill="white"/>
<path id="Rectangle 7" d="M69.413 27.7173H91.5869C92.8116 27.7173 93.8043 28.71 93.8043 29.9347C93.8043 31.1593 92.8116 32.1521 91.5869 32.1521H69.413V27.7173Z" fill="white"/>
</g>
<g id="Group 1">
<g id="Union_2">
<mask id="path-5-outside-1_509_13" maskUnits="userSpaceOnUse" x="0" y="19.2827" width="85" height="82" fill="black">
<rect fill="white" y="19.2827" width="85" height="82"/>
<path fill-rule="evenodd" clip-rule="evenodd" d="M10 23.2827C6.68629 23.2827 4 25.969 4 29.2827V73.8262C4 77.1399 6.68629 79.8262 10 79.8262H13.9783V90.9131L25.0652 79.8262H74.5C77.8137 79.8262 80.5 77.1399 80.5 73.8262V29.2827C80.5 25.969 77.8137 23.2827 74.5 23.2827H10Z"/>
</mask>
<path fill-rule="evenodd" clip-rule="evenodd" d="M10 23.2827C6.68629 23.2827 4 25.969 4 29.2827V73.8262C4 77.1399 6.68629 79.8262 10 79.8262H13.9783V90.9131L25.0652 79.8262H74.5C77.8137 79.8262 80.5 77.1399 80.5 73.8262V29.2827C80.5 25.969 77.8137 23.2827 74.5 23.2827H10Z" fill="#232323"/>
<path d="M13.9783 79.8262H17.9783V75.8262H13.9783V79.8262ZM13.9783 90.9131H9.97826V100.57L16.8067 93.7416L13.9783 90.9131ZM25.0652 79.8262V75.8262H23.4084L22.2368 76.9978L25.0652 79.8262ZM8 29.2827C8 28.1781 8.89543 27.2827 10 27.2827V19.2827C4.47715 19.2827 0 23.7599 0 29.2827H8ZM8 73.8262V29.2827H0V73.8262H8ZM10 75.8262C8.89543 75.8262 8 74.9308 8 73.8262H0C0 79.349 4.47715 83.8262 10 83.8262V75.8262ZM13.9783 75.8262H10V83.8262H13.9783V75.8262ZM17.9783 90.9131V79.8262H9.97826V90.9131H17.9783ZM22.2368 76.9978L11.1498 88.0847L16.8067 93.7416L27.8936 82.6546L22.2368 76.9978ZM74.5 75.8262H25.0652V83.8262H74.5V75.8262ZM76.5 73.8262C76.5 74.9308 75.6046 75.8262 74.5 75.8262V83.8262C80.0228 83.8262 84.5 79.349 84.5 73.8262H76.5ZM76.5 29.2827V73.8262H84.5V29.2827H76.5ZM74.5 27.2827C75.6046 27.2827 76.5 28.1781 76.5 29.2827H84.5C84.5 23.7599 80.0228 19.2827 74.5 19.2827V27.2827ZM10 27.2827H74.5V19.2827H10V27.2827Z" fill="white" mask="url(#path-5-outside-1_509_13)"/>
</g>
<path id="Union_3" fill-rule="evenodd" clip-rule="evenodd" d="M33.5019 43.5824C33.0764 44.7087 32.8511 45.9476 32.8261 47.2991H38.3448C38.3448 46.6233 38.4199 45.9976 38.5701 45.422C38.7203 44.8213 38.9455 44.3082 39.2459 43.8827C39.5712 43.4322 39.9717 43.0818 40.4472 42.8316C40.9478 42.5562 41.536 42.4186 42.2117 42.4186C43.2128 42.4186 43.9887 42.6939 44.5393 43.2445C45.115 43.7951 45.4028 44.6461 45.4028 45.7974C45.4278 46.4732 45.3027 47.0363 45.0274 47.4868C44.7771 47.9373 44.4392 48.3503 44.0138 48.7257C43.5883 49.1011 43.1252 49.4766 42.6247 49.852C42.1241 50.2274 41.6486 50.6779 41.1981 51.2035C40.7476 51.7041 40.3471 52.3173 39.9967 53.0431C39.6713 53.7689 39.4711 54.6699 39.396 55.7461V57.4356H44.4643V56.0089C44.5644 55.2581 44.8021 54.6324 45.1776 54.1318C45.578 53.6313 46.0285 53.1933 46.5291 52.8178C47.0297 52.4174 47.5553 52.0294 48.1059 51.654C48.6815 51.2536 49.1946 50.778 49.6451 50.2274C50.1206 49.6768 50.5086 49.0135 50.8089 48.2377C51.1343 47.4618 51.297 46.4732 51.297 45.2718C51.297 44.546 51.1343 43.7701 50.8089 42.9442C50.5086 42.0932 49.9955 41.3048 49.2697 40.579C48.5439 39.8532 47.5803 39.2525 46.3789 38.777C45.2026 38.2764 43.7259 38.0261 41.9489 38.0261C40.5724 38.0261 39.3209 38.2639 38.1947 38.7394C37.0934 39.1899 36.1424 39.8282 35.3415 40.6541C34.5656 41.48 33.9524 42.4561 33.5019 43.5824ZM41.9042 65.4696C43.6321 65.4696 45.0327 64.0689 45.0327 62.3411C45.0327 60.6132 43.6321 59.2126 41.9042 59.2126C40.1764 59.2126 38.7757 60.6132 38.7757 62.3411C38.7757 64.0689 40.1764 65.4696 41.9042 65.4696Z" fill="white"/>
</g>
</g>
</svg>
