<svg width="109" height="109" viewBox="0 0 109 109" fill="none" xmlns="http://www.w3.org/2000/svg">
<mask id="path-1-inside-1_300_2008" fill="white">
<rect x="20" y="19" width="89" height="30" rx="4"/>
</mask>
<rect x="20" y="19" width="89" height="30" rx="4" fill="white" stroke="#232323" stroke-width="14" mask="url(#path-1-inside-1_300_2008)"/>
<rect x="33" y="32" width="22" height="4" rx="2" fill="#232323"/>
<rect x="57" y="32" width="16" height="4" rx="2" fill="#232323"/>
<rect x="6" y="37" width="96" height="44" fill="white"/>
<rect y="42" width="101" height="66.5934" rx="6" fill="#232323"/>
<path d="M6 53H95V102H6V53Z" fill="white"/>
<circle cx="8" cy="48" r="2" fill="white"/>
<circle cx="14" cy="48" r="2" fill="white"/>
<circle cx="20" cy="48" r="2" fill="white"/>
<rect x="11" y="58" width="79" height="22" fill="#D9D9D9"/>
<rect x="11" y="85" width="23" height="17" fill="#D9D9D9"/>
<rect x="39" y="85" width="23" height="17" fill="#D9D9D9"/>
<rect x="67" y="85" width="23" height="17" fill="#D9D9D9"/>
</svg>
