<svg width="109" height="109" viewBox="0 0 109 109" fill="none" xmlns="http://www.w3.org/2000/svg">
<circle cx="54.5" cy="44.6516" r="40.5" fill="#121212" stroke="white" stroke-width="6"/>
<circle cx="54.5" cy="44.6515" r="26.9312" fill="#121212" stroke="white" stroke-width="6"/>
<mask id="path-3-outside-1_71_399" maskUnits="userSpaceOnUse" x="38.8341" y="30.531" width="71.3572" height="72.0939" fill="black">
<rect fill="white" x="38.8341" y="30.531" width="71.3572" height="72.0939"/>
<path fill-rule="evenodd" clip-rule="evenodd" d="M92.2043 67.8412L66.6742 55.5861L69.4584 83.768L77.0403 78.4591L82.3493 86.041L89.9312 80.7321L84.6223 73.1502L92.2043 67.8412Z"/>
</mask>
<path fill-rule="evenodd" clip-rule="evenodd" d="M92.2043 67.8412L66.6742 55.5861L69.4584 83.768L77.0403 78.4591L82.3493 86.041L89.9312 80.7321L84.6223 73.1502L92.2043 67.8412Z" fill="white"/>
<path d="M66.6742 55.5861L69.2707 50.177L59.6545 45.561L60.7033 56.176L66.6742 55.5861ZM92.2043 67.8412L95.6457 72.7561L104.049 66.8717L94.8008 62.4321L92.2043 67.8412ZM69.4584 83.768L63.4875 84.3579L64.4961 94.5673L72.8999 88.6829L69.4584 83.768ZM77.0403 78.4591L81.9552 75.0176L78.5138 70.1027L73.5989 73.5442L77.0403 78.4591ZM82.3493 86.041L77.4343 89.4825L80.8758 94.3974L85.7907 90.9559L82.3493 86.041ZM89.9312 80.7321L93.3727 85.647L98.2876 82.2055L94.8461 77.2906L89.9312 80.7321ZM84.6223 73.1502L81.1808 68.2353L76.2659 71.6767L79.7074 76.5916L84.6223 73.1502ZM64.0777 60.9952L89.6078 73.2503L94.8008 62.4321L69.2707 50.177L64.0777 60.9952ZM75.4294 83.1781L72.6451 54.9962L60.7033 56.176L63.4875 84.3579L75.4294 83.1781ZM73.5989 73.5442L66.017 78.8531L72.8999 88.6829L80.4818 83.374L73.5989 73.5442ZM87.2642 82.5996L81.9552 75.0176L72.1254 81.9006L77.4343 89.4825L87.2642 82.5996ZM86.4897 75.8172L78.9078 81.1261L85.7907 90.9559L93.3727 85.647L86.4897 75.8172ZM79.7074 76.5916L85.0163 84.1735L94.8461 77.2906L89.5372 69.7087L79.7074 76.5916ZM88.7628 62.9263L81.1808 68.2353L88.0637 78.0651L95.6457 72.7561L88.7628 62.9263Z" fill="#121212" mask="url(#path-3-outside-1_71_399)"/>
<path d="M47.7471 55.2444V50.7444C48.2171 50.7444 48.7121 50.6844 49.2321 50.5644C49.7521 50.4444 50.2171 50.2744 50.6271 50.0544C51.0371 49.8344 51.3221 49.5644 51.4821 49.2444C51.6421 48.9244 51.5971 48.5644 51.3471 48.1644C51.2071 47.9244 51.0121 47.6594 50.7621 47.3694C50.5121 47.0794 50.2371 46.7644 49.9371 46.4244C49.6371 46.0844 49.3371 45.7294 49.0371 45.3594C48.7371 44.9894 48.4621 44.6044 48.2121 44.2044C47.9621 43.8044 47.7621 43.3994 47.6121 42.9894C47.4621 42.5694 47.3871 42.1544 47.3871 41.7444C47.3871 40.6644 47.5921 39.6494 48.0021 38.6994C48.4121 37.7494 48.9821 36.9094 49.7121 36.1794C50.4421 35.4494 51.2821 34.8794 52.2321 34.4694C53.1821 34.0594 54.1971 33.8544 55.2771 33.8544C56.3671 33.8544 57.3871 34.0594 58.3371 34.4694C59.2971 34.8794 60.1421 35.4494 60.8721 36.1794C61.6021 36.8994 62.1721 37.7344 62.5821 38.6844C62.9921 39.6344 63.1971 40.6544 63.1971 41.7444H58.6971C58.6971 41.1244 58.5421 40.5594 58.2321 40.0494C57.9321 39.5294 57.5221 39.1194 57.0021 38.8194C56.4821 38.5094 55.9071 38.3544 55.2771 38.3544C54.6571 38.3544 54.0871 38.5094 53.5671 38.8194C53.0571 39.1194 52.6471 39.5294 52.3371 40.0494C52.0371 40.5594 51.8871 41.1244 51.8871 41.7444C51.8871 42.2644 51.9871 42.7344 52.1871 43.1544C52.3871 43.5744 52.6421 43.9744 52.9521 44.3544C53.2721 44.7344 53.6121 45.1094 53.9721 45.4794C54.3321 45.8394 54.6671 46.2244 54.9771 46.6344C55.2971 47.0444 55.5571 47.4894 55.7571 47.9694C55.9571 48.4494 56.0571 48.9944 56.0571 49.6044C56.0571 49.7544 56.0471 49.9044 56.0271 50.0544C56.0071 50.2044 55.9821 50.3444 55.9521 50.4744C55.9321 50.5944 55.9171 50.6844 55.9071 50.7444H62.8071V55.2444H47.7471ZM47.7471 48.5844V45.5844H59.4471V48.5844H47.7471Z" fill="white"/>
</svg>
