<svg width="109" height="109" viewBox="0 0 109 109" fill="none" xmlns="http://www.w3.org/2000/svg">
<rect x="6" y="27" width="34.71" height="34.71" rx="3" fill="white" stroke="#232323" stroke-width="2"/>
<path d="M33.0431 44.089C33.0431 48.9327 29.4884 52.9562 24.84 53.6593V46.9015H27.1056L27.5353 44.089H24.84V42.2921C24.84 41.5109 25.2306 40.7687 26.4416 40.7687H27.6525V38.3859C27.6525 38.3859 26.5588 38.1906 25.465 38.1906C23.2775 38.1906 21.8322 39.5577 21.8322 41.9796V44.089H19.3713V46.9015H21.8322V53.6593C17.1838 52.9562 13.6681 48.9327 13.6681 44.089C13.6681 38.7374 18.0041 34.4015 23.3556 34.4015C28.7072 34.4015 33.0431 38.7374 33.0431 44.089Z" fill="#232323"/>
<rect x="52" y="27" width="34.7107" height="34.7107" rx="3" fill="white" stroke="#232323" stroke-width="2"/>
<path d="M69.3548 39.7128C71.6926 39.7128 73.6223 41.6425 73.6223 43.9803C73.6223 46.3553 71.6926 48.2479 69.3548 48.2479C66.9798 48.2479 65.0872 46.3553 65.0872 43.9803C65.0872 41.6425 66.9798 39.7128 69.3548 39.7128ZM69.3548 46.7635C70.8762 46.7635 72.1008 45.5389 72.1008 43.9803C72.1008 42.4589 70.8762 41.2343 69.3548 41.2343C67.7962 41.2343 66.5716 42.4589 66.5716 43.9803C66.5716 45.5389 67.8333 46.7635 69.3548 46.7635ZM74.7727 39.5643C74.7727 40.121 74.3274 40.5663 73.7708 40.5663C73.2141 40.5663 72.7688 40.121 72.7688 39.5643C72.7688 39.0077 73.2141 38.5624 73.7708 38.5624C74.3274 38.5624 74.7727 39.0077 74.7727 39.5643ZM77.593 40.5663C77.6673 41.9393 77.6673 46.0585 77.593 47.4315C77.5188 48.7675 77.2219 49.9178 76.2571 50.9198C75.2923 51.8846 74.1048 52.1815 72.7688 52.2557C71.3958 52.33 67.2766 52.33 65.9036 52.2557C64.5676 52.1815 63.4173 51.8846 62.4153 50.9198C61.4505 49.9178 61.1536 48.7675 61.0794 47.4315C61.0051 46.0585 61.0051 41.9393 61.0794 40.5663C61.1536 39.2303 61.4505 38.0428 62.4153 37.078C63.4173 36.1132 64.5676 35.8163 65.9036 35.7421C67.2766 35.6678 71.3958 35.6678 72.7688 35.7421C74.1048 35.8163 75.2923 36.1132 76.2571 37.078C77.2219 38.0428 77.5188 39.2303 77.593 40.5663ZM75.8118 48.8788C76.2571 47.8026 76.1458 45.205 76.1458 43.9803C76.1458 42.7928 76.2571 40.1952 75.8118 39.0819C75.5149 38.3768 74.9583 37.7831 74.2532 37.5233C73.1399 37.078 70.5423 37.1893 69.3548 37.1893C68.1301 37.1893 65.5325 37.078 64.4563 37.5233C63.7141 37.8202 63.1575 38.3768 62.8606 39.0819C62.4153 40.1952 62.5266 42.7928 62.5266 43.9803C62.5266 45.205 62.4153 47.8026 62.8606 48.8788C63.1575 49.621 63.7141 50.1776 64.4563 50.4745C65.5325 50.9198 68.1301 50.8085 69.3548 50.8085C70.5423 50.8085 73.1399 50.9198 74.2532 50.4745C74.9583 50.1776 75.552 49.621 75.8118 48.8788Z" fill="#232323"/>
<rect x="51.9213" y="70.5529" width="34.17" height="34.17" rx="3" fill="white" stroke="#232323" stroke-width="2"/>
<path d="M78.0402 83.6445C78.4621 85.1211 78.4621 88.2852 78.4621 88.2852C78.4621 88.2852 78.4621 91.4141 78.0402 92.9258C77.8293 93.7695 77.1613 94.4023 76.3527 94.6133C74.841 95 68.8644 95 68.8644 95C68.8644 95 62.8527 95 61.341 94.6133C60.5324 94.4023 59.8644 93.7695 59.6535 92.9258C59.2316 91.4141 59.2316 88.2852 59.2316 88.2852C59.2316 88.2852 59.2316 85.1211 59.6535 83.6445C59.8644 82.8008 60.5324 82.1328 61.341 81.9219C62.8527 81.5 68.8644 81.5 68.8644 81.5C68.8644 81.5 74.841 81.5 76.3527 81.9219C77.1613 82.1328 77.8293 82.8008 78.0402 83.6445ZM66.8957 91.1328L71.8879 88.2852L66.8957 85.4375V91.1328Z" fill="#232323"/>
<rect x="6" y="70" width="34.7107" height="34.7107" rx="3" fill="white" stroke="black" stroke-width="2"/>
<path d="M28.6234 79.0658H31.4175L25.3148 86.0392L32.494 95.5297H26.8741L22.4692 89.7753L17.435 95.5297H14.637L21.1632 88.0695L14.2808 79.0658H20.0431L24.0206 84.3255L28.6234 79.0658ZM27.6419 93.8596H29.1893L19.2002 80.6489H17.5379L27.6419 93.8596Z" fill="#232323"/>
</svg>
