<svg width="62" height="98" viewBox="0 0 62 98" fill="none" xmlns="http://www.w3.org/2000/svg">
<g id="icon-pentool">
<path id="Union" fill-rule="evenodd" clip-rule="evenodd" d="M30.7935 0.0143729C30.7935 0.0151056 30.7937 0.0158274 30.794 0.0164853L61.0872 61.8195C61.4977 62.6571 61.2748 63.6673 60.5498 64.2542L46.2114 75.8627C45.7424 76.2424 45.4699 76.8136 45.4699 77.4171V86.0736C45.4699 87.1781 44.5745 88.0736 43.4699 88.0736H30.7935H30.7828H18.1065C17.0019 88.0736 16.1065 87.1781 16.1065 86.0736L16.1065 77.4171C16.1065 76.8136 15.834 76.2424 15.3649 75.8627L1.02656 64.2542C0.301589 63.6673 0.0786221 62.6571 0.489167 61.8195L30.7823 0.0164853C30.7827 0.0158276 30.7828 0.0151057 30.7828 0.0143732V0.00191548C30.7828 -0.000110685 30.7856 -0.000745473 30.7865 0.00107395C30.7872 0.00250151 30.7892 0.00250133 30.7899 0.00107388C30.7908 -0.000745816 30.7935 -0.000111394 30.7935 0.00191521V0.0143729Z" fill="#232323"/>
<g id="Mask group">
<mask id="mask0_509_177" style="mask-type:alpha" maskUnits="userSpaceOnUse" x="0" y="0" width="62" height="89">
<path id="Union_2" fill-rule="evenodd" clip-rule="evenodd" d="M30.7935 0.0143729C30.7935 0.0151056 30.7937 0.0158274 30.794 0.0164853L61.0872 61.8195C61.4977 62.6571 61.2748 63.6673 60.5498 64.2542L46.2114 75.8627C45.7424 76.2424 45.4699 76.8136 45.4699 77.4171V86.0736C45.4699 87.1781 44.5745 88.0736 43.4699 88.0736H30.7935H30.7828H18.1065C17.0019 88.0736 16.1065 87.1781 16.1065 86.0736L16.1065 77.4171C16.1065 76.8136 15.834 76.2424 15.3649 75.8627L1.02656 64.2542C0.301589 63.6673 0.0786221 62.6571 0.489167 61.8195L30.7823 0.0164853C30.7827 0.0158276 30.7828 0.0151057 30.7828 0.0143732V0.00191548C30.7828 -0.000110685 30.7856 -0.000745473 30.7865 0.00107395C30.7872 0.00250151 30.7892 0.00250133 30.7899 0.00107388C30.7908 -0.000745816 30.7935 -0.000111394 30.7935 0.00191521V0.0143729Z" fill="#232323"/>
</mask>
<g mask="url(#mask0_509_177)">
<rect id="Rectangle 184" x="28.7698" y="-1.4729" width="3.89" height="54.4985" fill="white"/>
</g>
</g>
<ellipse id="Ellipse 57" cx="30.7939" cy="55.0658" rx="5.53" ry="5.42684" fill="white"/>
<rect id="Rectangle 185" x="16.0594" y="91.321" width="29.4586" height="5.89172" rx="2.94586" fill="#232323"/>
</g>
</svg>
